{"title":"Cats and Dogs-The Revenge of Kitty Galore-XviD-DVDRip[Eng]2010 2","uid":5907507,"size":1463947389,"categoryP":"video","categoryS":"movies","magnet":"?xt=urn:btih:f4d7791ee0863b7032c89fe39832c9f98e912406&amp;dn=Cats+and+Dogs-The+Revenge+of+Kitty+Galore-XviD-DVDRip%5BEng%5D2010+2&amp;tr=udp%3A%2F%2Ftracker.openbittorrent.com%3A80&amp;tr=udp%3A%2F%2Fopen.demonii.com%3A1337&amp;tr=udp%3A%2F%2Ftracker.coppersurfer.tk%3A6969&amp;tr=udp%3A%2F%2Fexodus.desync.com%3A6969","seeders":1,"leechers":0,"uploader":"FatFreddy31","files":-1,"time":1287930659,"description":"The ongoing war between the canine and feline species is put on hold when they join forces to thwart a rogue cat spy with her own sinister plans for conquest.\n &lt;a href=&quot;\nhttp://www.imdb.com/title/tt1287468/&quot; rel=&quot;nofollow&quot; target=&quot;_NEW&quot;&gt;\nhttp://www.imdb.com/title/tt1287468/&lt;/a&gt;\n\nSubtitles (srt) : Dutch, English.\n\nCovers included.\n\nIn de eeuwenoude strijd tussen katten en honden, is er nu een kattige kat die het flink uit de klauwen laat lopen. Kitty Galore, voorheen een agent voor de kattenspionageorganisatie MIAUWS, is voor zichzelf begonnen en heeft een duivels plan bedacht. Ze wil niet alleen alle honden voor haar in het stof laten bijten, maar ook haar voormalige poezenkameraden ten gronde richten en ÃƒÂ©ÃƒÂ©n grote krabpaal van de wereld maken. Katten en honden worden gedwongen de poten ineen te slaan om deze bedreiging af te wenden. Voor het eerst in de geschiedenis besluiten ze elkaars bondgenoten te zijn om henzelf en hun baasjes te redden.\n &lt;a href=&quot;\nhttp://www.moviemeter.nl/film/62892&quot; rel=&quot;nofollow&quot; target=&quot;_NEW&quot;&gt;\nhttp://www.moviemeter.nl/film/62892&lt;/a&gt;\n\nOndertitels (srt) : Engels, Nederlands.\n\nHoesjes bijgevoegd.\n\nGeneral\nComplete name                    : Cats and Dogs-The Revenge of Kitty Galore-XviD-DVDRip[Eng]2010 2Lions-Team\\Cats and Dogs-The Revenge of Kitty Galore-XviD-DVDRip[Eng]2010 2Lions-Team.avi\nFormat                           : AVI\nFormat/Info                      : Audio Video Interleave\nFile size                        : 1.36 GiB\nDuration                         : 1h 22mn\nOverall bit rate                 : 2 368 Kbps\nWriting application              : VirtualDubMod 1.5.4.1 (build 2178/release)\nWriting library                  : VirtualDubMod build 2178/release\nSource                           : Cats.and.Dogs.The.Revenge.of.Kitty.Galore.DVDR-BOW\n\nVideo\nID                               : 0\nFormat                           : MPEG-4 Visual\nFormat profile                   : Simple@L3\nFormat settings, BVOP            : No\nFormat settings, QPel            : No\nFormat settings, GMC             : No warppoints\nFormat settings, Matrix          : Default (H.263)\nCodec ID                         : XVID\nCodec ID/Hint                    : XviD\nDuration                         : 1h 22mn\nBit rate                         : 1 975 Kbps\nWidth                            : 720 pixels\nHeight                           : 400 pixels\nDisplay aspect ratio             : 16:9\nFrame rate                       : 23.976 fps\nColor space                      : YUV\nChroma subsampling               : 4:2:0\nBit depth                        : 8 bits\nScan type                        : Progressive\nBits/(Pixel*Frame)               : 0.286\nStream size                      : 1.14 GiB (83%)\nWriting library                  : XviD 1.1.2 (UTC 2006-11-01)\n\nAudio\nID                               : 1\nFormat                           : AC-3\nFormat/Info                      : Audio Coding 3\nMode extension                   : CM (complete main)\nCodec ID                         : 2000\nDuration                         : 1h 22mn\nBit rate mode                    : Constant\nBit rate                         : 384 Kbps\nChannel(s)                       : 6 channels\nChannel positions                : Front: L C R, Side: L R, LFE\nSampling rate                    : 48.0 KHz\nBit depth                        : 16 bits\nStream size                      : 226 MiB (16%)\nAlignment                        : Split accross interleaves\nInterleave, duration             : 42 ms (1.00 video frame)\nInterleave, preload duration     : 500 ms\n\nThanks to Sendleech for the source,and Simply ReleaseS for the Dutch subs.\n\nBrought to you by Gollum.\n\nDON T HIT AND RUN Niet gelijk afhaken als de FILM binnen is blijf seeden. \n\nDon`t quit after you finished the download, but keep seeding\n\n\nThere are fake torrents from uploaders who use our team name.\nThose are not ours, or members from our team.\nWe 2Lions-Team are not responsible for the fake posts on our name\n\nWij  zijn niet verantwoordelijk voor die zieke FAKE posten die op onze naam worden gedaan.","torrent":{"xt":"urn:btih:f4d7791ee0863b7032c89fe39832c9f98e912406","amp;dn":"Cats+and+Dogs-The+Revenge+of+Kitty+Galore-XviD-DVDRip%5BEng%5D2010+2","amp;tr":["udp%3A%2F%2Ftracker.openbittorrent.com%3A80","udp%3A%2F%2Fopen.demonii.com%3A1337","udp%3A%2F%2Ftracker.coppersurfer.tk%3A6969","udp%3A%2F%2Fexodus.desync.com%3A6969"],"infoHash":"f4d7791ee0863b7032c89fe39832c9f98e912406","infoHashBuffer":{"type":"Buffer","data":[244,215,121,30,224,134,59,112,50,200,159,227,152,50,201,249,142,145,36,6]},"announce":[],"urlList":[]}}